<svg xmlns="http://www.w3.org/2000/svg" width="530.229" height="554.549" viewBox="0 0 530.229 554.549">
  <g id="undraw_drag_5i9w" transform="translate(-167.153)">
    <path id="phone-circle" d="M577.435,611.383c-2.38,0-4.785-.039-7.145-.116l.054-1.789c3.389.11,6.848.141,10.253.092l.023,1.791Q579.03,611.382,577.435,611.383Zm13.509-.415-.1-1.788c3.394-.209,6.832-.5,10.218-.873l.179,1.781C597.828,610.461,594.365,610.757,590.944,610.967Zm-30.969-.279c-3.423-.274-6.881-.632-10.281-1.068l.209-1.777c3.373.431,6.805.788,10.2,1.059Zm51.512-1.97-.257-1.77c3.372-.534,6.771-1.154,10.1-1.844l.334,1.756C618.308,607.556,614.885,608.181,611.487,608.719Zm-72.015-.655c-3.381-.6-6.794-1.286-10.144-2.045l.364-1.751c3.324.754,6.711,1.436,10.067,2.029Zm92.274-3.548-.412-1.739c3.31-.854,6.639-1.8,9.894-2.806l.488,1.718C638.436,602.7,635.082,603.655,631.746,604.516Zm-112.461-1.027c-3.317-.921-6.654-1.934-9.92-3.012l.517-1.707c3.241,1.07,6.553,2.074,9.844,2.987Zm132.264-5.106-.563-1.691c3.212-1.166,6.443-2.426,9.6-3.747l.637,1.663C658.044,595.939,654.788,597.209,651.55,598.383Zm-151.987-1.4c-3.221-1.236-6.462-2.569-9.633-3.964l.666-1.651c3.146,1.384,6.362,2.707,9.559,3.934Zm171.145-6.6-.711-1.63c3.085-1.463,6.186-3.025,9.217-4.642l.781,1.6C676.941,587.334,673.817,588.907,670.708,590.382ZM480.485,588.6c-3.1-1.54-6.2-3.178-9.237-4.87l.809-1.579c3.01,1.678,6.093,3.3,9.166,4.833Zm208.582-8.01-.85-1.555c2.959-1.762,5.912-3.615,8.777-5.506l.917,1.513C695.025,576.944,692.049,578.812,689.067,580.586Zm-226.829-2.165c-2.945-1.829-5.894-3.757-8.765-5.731l.944-1.5c2.849,1.959,5.775,3.873,8.7,5.687ZM706.5,569.072l-.982-1.467c2.786-2.032,5.566-4.159,8.263-6.323l1.046,1.42c-2.717,2.18-5.519,4.324-8.327,6.37ZM444.97,566.549c-2.77-2.1-5.536-4.3-8.224-6.539l1.071-1.4c2.667,2.222,5.413,4.405,8.161,6.488Zm277.9-10.608-1.106-1.37c2.6-2.287,5.181-4.67,7.682-7.084l1.165,1.315c-2.519,2.432-5.124,4.834-7.74,7.138Zm-294.053-2.853c-2.579-2.358-5.142-4.81-7.616-7.289l1.188-1.293c2.456,2.461,5,4.895,7.558,7.235ZM738.035,541.3l-1.222-1.258c2.394-2.532,4.762-5.152,7.036-7.787l1.275,1.2c-2.292,2.656-4.678,5.3-7.09,7.847Zm-324.121-3.145c-2.367-2.6-4.7-5.282-6.947-7.979l1.3-1.174c2.226,2.677,4.545,5.341,6.894,7.918Zm337.952-12.878-1.326-1.137c2.163-2.747,4.292-5.581,6.33-8.426l1.374,1.072C756.191,519.655,754.045,522.512,751.866,525.279Zm-351.489-3.4c-2.125-2.8-4.218-5.7-6.22-8.6l1.392-1.046c1.987,2.882,4.064,5.754,6.173,8.537ZM764.245,508l-1.419-1.006c1.914-2.941,3.788-5.968,5.57-9l1.463.938C768.062,501.987,766.173,505.037,764.245,508Zm-375.924-3.608c-1.87-2.992-3.7-6.07-5.439-9.152l1.478-.91c1.727,3.058,3.543,6.114,5.4,9.082Zm386.748-14.786-1.5-.866c1.647-3.112,3.248-6.307,4.758-9.5l1.538.794C778.343,483.25,776.729,486.47,775.069,489.606ZM377.85,485.84c-1.6-3.157-3.152-6.4-4.612-9.627l1.552-.764c1.449,3.206,2.989,6.421,4.577,9.554Zm406.383-15.6-1.572-.719c1.367-3.259,2.68-6.6,3.9-9.921l1.6.642c-1.232,3.35-2.556,6.713-3.933,10Zm-415.178-3.865c-1.315-3.3-2.575-6.667-3.744-10.022l1.613-.612c1.16,3.329,2.41,6.675,3.715,9.945Zm422.6-16.313-1.629-.563c1.071-3.368,2.081-6.81,3-10.232l1.652.484c-.929,3.448-1.948,6.918-3.026,10.311ZM362.005,446.14c-1.021-3.413-1.98-6.9-2.851-10.365l1.66-.455c.864,3.439,1.816,6.9,2.829,10.287Zm435.24-16.832-1.672-.406c.768-3.452,1.47-6.977,2.088-10.476l1.688.324c-.622,3.527-1.33,7.079-2.1,10.559Zm-440.481-4.025c-.716-3.5-1.363-7.062-1.925-10.594l1.693-.294c.558,3.506,1.2,7.043,1.91,10.514ZM800.985,408.1l-1.7-.243c.462-3.508.851-7.085,1.159-10.632l1.709.161c-.31,3.575-.7,7.179-1.167,10.714Zm-447.6-4.089c-.4-3.546-.737-7.157-.988-10.733l1.712-.131c.248,3.55.579,7.133.98,10.652Zm449.468-17.382-1.714-.08c.152-3.549.23-7.149.23-10.7h1.716C803.083,379.431,803.005,383.057,802.851,386.633Zm-450.976-4.121c-.059-2.2-.088-4.437-.089-6.658q0-2.067.034-4.127l1.716.031q-.034,2.044-.034,4.1c0,2.2.03,4.429.088,6.609Zm449.48-9.157c-.035-3.551-.149-7.15-.338-10.7l1.713-.1c.19,3.575.3,7.2.341,10.779Zm-447.411-12.29-1.713-.112c.214-3.579.51-7.193.878-10.744l1.706.193C354.449,353.926,354.156,357.513,353.943,361.065Zm446.271-9.076c-.343-3.531-.769-7.1-1.267-10.619l1.7-.261c.5,3.542.931,7.142,1.277,10.7Zm-444.064-12.2-1.7-.274c.526-3.543,1.137-7.115,1.816-10.616l1.682.355C357.278,332.734,356.672,336.278,356.151,339.794Zm441.065-8.969c-.654-3.494-1.393-7.011-2.2-10.453l1.667-.423c.809,3.468,1.553,7.013,2.212,10.533Zm-437-12-1.664-.436c.833-3.469,1.756-6.967,2.743-10.4l1.643.515C361.958,311.909,361.042,315.38,360.215,318.823Zm432.151-8.788c-.957-3.41-2-6.841-3.108-10.2l1.622-.582c1.114,3.382,2.168,6.84,3.133,10.276ZM366.122,298.3l-1.619-.594c1.14-3.386,2.372-6.788,3.659-10.112l1.591.672C368.476,291.566,367.254,294.943,366.122,298.3Zm419.58-8.5c-1.252-3.3-2.592-6.6-3.985-9.833l1.565-.736c1.4,3.253,2.754,6.587,4.015,9.908ZM373.824,278.424l-1.559-.748c1.433-3.258,2.959-6.525,4.534-9.71l1.525.821C376.76,271.948,375.246,275.19,373.824,278.424Zm403.48-8.092c-1.536-3.162-3.163-6.331-4.836-9.416l1.493-.882c1.687,3.11,3.326,6.3,4.873,9.489ZM383.242,259.38l-1.487-.894c1.712-3.1,3.517-6.208,5.366-9.23l1.446.964C386.732,253.219,384.94,256.3,383.242,259.38Zm383.981-7.644c-1.813-3.013-3.712-6.014-5.643-8.921l1.409-1.021c1.946,2.929,3.86,5.954,5.687,8.99ZM394.287,241.327l-1.4-1.032c1.978-2.928,4.046-5.847,6.149-8.676l1.356,1.1C398.3,235.524,396.249,238.42,394.287,241.327Zm361.264-7.157c-2.068-2.827-4.221-5.637-6.4-8.353l1.315-1.15c2.2,2.736,4.367,5.568,6.451,8.416Zm-348.692-9.761-1.306-1.161c2.22-2.722,4.534-5.431,6.877-8.052l1.254,1.222C411.359,219.019,409.063,221.708,406.859,224.409Zm335.53-6.634c-2.3-2.619-4.7-5.215-7.106-7.714l1.21-1.271c2.428,2.519,4.837,5.134,7.16,7.773Zm-321.541-9.013-1.2-1.28c2.454-2.506,4.993-4.983,7.546-7.362l1.143,1.336c-2.534,2.361-5.054,4.82-7.489,7.307Zm307-6.072c-2.526-2.391-5.134-4.75-7.752-7.01l1.094-1.38c2.637,2.277,5.265,4.654,7.811,7.064Zm-291.712-8.178-1.083-1.389c2.654-2.256,5.4-4.481,8.153-6.613l1.022,1.439c-2.735,2.116-5.457,4.324-8.091,6.563Zm275.91-5.469c-2.726-2.142-5.53-4.244-8.335-6.247l.969-1.478c2.827,2.018,5.652,4.136,8.4,6.295ZM452.594,181.78l-.958-1.486c2.84-1.995,5.765-3.948,8.692-5.807l.892,1.53c-2.9,1.844-5.806,3.783-8.625,5.762Zm242.516-4.828c-2.9-1.873-5.878-3.7-8.85-5.428l.835-1.565c3,1.742,6,3.583,8.919,5.469Zm-225.023-6.278-.824-1.572c3.005-1.716,6.086-3.381,9.158-4.95l.754,1.609C476.126,167.318,473.068,168.97,470.086,170.674Zm207.09-4.15c-3.053-1.588-6.181-3.122-9.3-4.559l.694-1.638c3.14,1.448,6.292,2.994,9.368,4.594ZM488.465,161.29l-.682-1.643c3.14-1.421,6.353-2.783,9.548-4.05l.609,1.675c-3.171,1.257-6.358,2.609-9.475,4.019Zm169.924-3.434c-3.177-1.286-6.429-2.513-9.666-3.646l.546-1.7c3.261,1.143,6.538,2.379,9.739,3.675ZM507.606,153.7l-.535-1.7c3.261-1.116,6.588-2.167,9.889-3.122l.459,1.725c-3.275.948-6.577,1.991-9.813,3.1Zm131.325-2.663c-3.273-.974-6.611-1.881-9.921-2.7l.394-1.743c3.336.821,6.7,1.735,10,2.715Zm-111.573-3.059-.382-1.746c3.343-.8,6.749-1.523,10.121-2.158l.3,1.762C534.055,146.47,530.676,147.191,527.358,147.982Zm91.622-1.851c-3.341-.655-6.745-1.237-10.116-1.731l.238-1.774c3.4.5,6.828,1.085,10.2,1.744Zm-71.449-1.949-.227-1.775c3.4-.473,6.851-.871,10.267-1.182l.149,1.784C554.33,143.318,550.9,143.712,547.531,144.182Zm51.149-1.028c-3.38-.332-6.82-.589-10.226-.76l.084-1.789c3.431.174,6.9.432,10.3.767Zm-30.728-.832-.072-1.789c3.154-.137,6.368-.207,9.554-.208h.777l-.005,1.791h-.772c-3.162,0-6.353.07-9.482.206Z" transform="translate(-105.701 -140.325)" fill="#fff"/>
    <path id="Path_308" data-name="Path 308" d="M510.3,299.763v58.82a2.015,2.015,0,0,1-1.965,2.051h-1.4V667.045c0,17.655-13.712,31.969-30.628,31.971H292.882c-16.911,0-30.623-14.313-30.621-31.968V371.38h-1.012a1.419,1.419,0,0,1-1.39-1.442V336.462a1.421,1.421,0,0,1,1.39-1.451h1.012V322.4h-1.021a1.489,1.489,0,0,1-1.45-1.522V287.861a1.486,1.486,0,0,1,1.45-1.513h1.021V269.135h-1.038a1.259,1.259,0,0,1-.911-.393,1.372,1.372,0,0,1-.376-.95V249.773a1.322,1.322,0,0,1,1.287-1.352h1.038V211.936c0-17.651,13.709-31.961,30.62-31.962H476.309c16.913,0,30.625,14.309,30.63,31.962v85.775h1.4A2.014,2.014,0,0,1,510.3,299.763Z" transform="translate(-92.635 -144.466)" fill="#2f2f2f"/>
    <rect id="Rectangle_165" data-name="Rectangle 165" width="34.168" height="7.242" rx="2.542" transform="translate(268.81 51.903)" fill="#e6e8ec"/>
    <ellipse id="Ellipse_29" data-name="Ellipse 29" cx="3.935" cy="4.108" rx="3.935" ry="4.108" transform="translate(308.144 51.416)" fill="#e6e8ec"/>
    <path id="Path_309" data-name="Path 309" d="M495.256,220.358V671.795c0,11.2-8.7,20.275-19.433,20.275H300.237a19,19,0,0,1-13.748-5.928,20.708,20.708,0,0,1-5.685-14.348V220.358c0-11.2,8.7-20.285,19.434-20.284h26.279v3.52c0,9.224,7.164,16.7,16,16.7h89.3c8.837,0,16-7.478,16-16.7v-3.52h28c10.734,0,19.437,9.08,19.433,20.284Z" transform="translate(-95.62 -146.566)" fill="#466b89"/>
    <rect id="Rectangle_166" data-name="Rectangle 166" width="199.051" height="101.197" transform="translate(193.755 201.498)" opacity="0.2"/>
    <rect id="Rectangle_168" data-name="Rectangle 168" width="199.051" height="101.197" transform="translate(193.755 354.887)" fill="#203546"/>
    <ellipse id="Ellipse_30" data-name="Ellipse 30" cx="17.16" cy="17.911" rx="17.16" ry="17.911" transform="translate(355.055 90.7)" fill="#fff"/>
    <path id="Path_310" data-name="Path 310" d="M440.272,119.763H433.1v-7.484H432v7.484h-7.17v1.152H432V128.4h1.1v-7.484h7.171Z" transform="translate(-60.335 -11.728)" fill="#3f3d56"/>
    <path id="Path_313" data-name="Path 313" d="M383.942,609.5C389.153,629.605,407,642.057,407,642.057s9.4-20.145,4.189-40.25-23.058-32.557-23.058-32.557S378.732,589.4,383.942,609.5Z" transform="translate(-110.044 -185.127)" fill="#fff"/>
    <path id="Path_314" data-name="Path 314" d="M387.212,607.533c14.3,14.528,16.044,36.861,16.044,36.861s-21.435-1.222-35.733-15.75-16.044-36.861-16.044-36.861S372.914,593.005,387.212,607.533Z" transform="translate(-105.657 -187.481)" fill="#6093bc"/>
    <path id="Path_315" data-name="Path 315" d="M434.681,609.5c-5.211,20.105-23.058,32.557-23.058,32.557s-9.4-20.145-4.189-40.25,23.058-32.557,23.058-32.557S439.892,589.4,434.681,609.5Z" transform="translate(-113.381 -185.127)" fill="#fff"/>
    <path id="Path_316" data-name="Path 316" d="M427.872,607.533c-14.3,14.528-16.044,36.861-16.044,36.861s21.435-1.222,35.733-15.75,16.044-36.861,16.044-36.861S442.17,593.005,427.872,607.533Z" transform="translate(-114.228 -187.481)" fill="#6093bc"/>
    <rect id="Rectangle_171" data-name="Rectangle 171" width="199.051" height="101.197" transform="translate(236.654 185.378)" fill="#203546"/>
    <rect id="Rectangle_172" data-name="Rectangle 172" width="1.716" height="66.639" transform="translate(335.448 220.076)" fill="#fff"/>
    <ellipse id="Ellipse_32" data-name="Ellipse 32" cx="9.028" cy="9.424" rx="9.028" ry="9.424" transform="translate(327.278 211.547)" fill="#6093bc"/>
    <path id="Path_320" data-name="Path 320" d="M452.352,428.913s-1.29-28.955-27.73-25.589" transform="translate(-116.045 -167.767)" fill="#fff"/>
    <path id="Path_322" data-name="Path 322" d="M512.654,409.507a2.671,2.671,0,0,1-2.486,1.577,3.786,3.786,0,0,1-1.012-.142c-2.295-.644-4.953-3.271-6.939-6.857-1.937-3.5-2.733-7.024-2.282-9.362a7.015,7.015,0,0,1,.956-.425,4.281,4.281,0,0,1,.524-.161c-.8,1.629-.321,5.331,1.875,9.3,1.795,3.251,4.225,5.711,6.181,6.252a1.617,1.617,0,0,0,1.488-.1,1.758,1.758,0,0,0,.825-1.3l.154.212.549.766Z" transform="translate(-126.724 -166.836)" fill="#3f3d56"/>
    <path id="Path_323" data-name="Path 323" d="M487.57,591.995l-.074-.052-1.092-.715c.006-1.835-1.326-4.842-4.268-7.861-2.486-2.53-5.373-4.191-7.365-4.269a6.758,6.758,0,0,1,.777-.811h.006c.123-.109.253-.219.389-.322A15.98,15.98,0,0,1,483,582.446C486.232,585.762,488.008,589.542,487.57,591.995Z" transform="translate(-123.167 -186.037)" fill="#3f3d56"/>
  </g>
</svg>
